#!OML:ASF F:\VICON\USERDATA\INSTALL\rory3\rory3.ASF
:FULLY-SPECIFIED
:DEGREES
1
root 2.22874 17.6234 -24.8011 -5.29661 -1.63838 3.78514
lowerback 18.4272 -0.624528 -5.29088
upperback 0.0431619 -1.83083 1.26174
thorax -10.1189 -0.565375 4.89246
lowerneck -13.7057 0.189904 -1.48068
upperneck 24.5674 1.81927 -4.58235
head 10.1309 0.160064 -1.13476
rclavicle 6.01324e-015 1.35174e-014
rhumerus -31.7639 -6.29712 -80.6418
rradius 37.0722
rwrist -3.15302
rhand -11.3323 8.57436
rfingers 7.12502
rthumb 14.7004 -20.8845
lclavicle 6.01324e-015 1.35174e-014
lhumerus -30.8361 1.52246 85.0881
lradius 46.1847
lwrist 10.7055
lhand -16.4248 52.0963
lfingers 7.12502
lthumb 9.79035 81.8488
rfemur -28.1486 -5.55088 18.2551
rtibia 51.1457
rfoot -8.74589 -9.50664
rtoes 1.48784
lfemur 1.26435 -2.48452 -30.7387
ltibia 23.2479
lfoot -15.2224 3.4492
ltoes -0.338003
2
root 2.23474 17.629 -24.6778 -5.21775 -1.48868 3.74688
lowerback 18.5312 -0.681131 -5.25514
upperback -0.106681 -1.90004 1.33031
thorax -10.3357 -0.585858 4.97469
lowerneck -12.9902 0.32535 -1.6444
upperneck 24.1728 1.95559 -4.39077
head 9.85023 0.248429 -1.01736
rclavicle -4.09993e-015 -9.54166e-015
rhumerus -32.0514 -6.13513 -80.6097
rradius 37.2083
rwrist -3.47927
rhand -11.724 8.74826
rfingers 7.12502
rthumb 14.3229 -20.7377
lclavicle -4.09993e-015 -9.54166e-015
lhumerus -30.9165 1.84775 84.8689
lradius 45.8371
lwrist 9.29103
lhand -14.4766 50.5082
lfingers 7.12502
lthumb 11.6695 80.1633
rfemur -28.2156 -5.6713 18.3961
rtibia 48.8771
rfoot -9.10883 -9.68237
rtoes 3.81692
lfemur 2.01926 -2.52641 -30.7675
ltibia 22.5362
lfoot -15.2145 3.45254
ltoes -0.677019
3
root 2.24212 17.6297 -24.5459 -5.13697 -1.23536 4.01052
lowerback 18.4181 -0.706336 -5.40515
upperback -0.11852 -1.97037 1.23174
thorax -10.2753 -0.616652 4.96543
lowerneck -12.7036 0.279056 -1.7099
upperneck 23.8696 1.83131 -4.19486
head 9.6819 0.217822 -0.949751
rclavicle 1.17531e-014 -1.59028e-015
rhumerus -32.0593 -6.69089 -80.3903
rradius 37.3868
rwrist -2.25703
rhand -11.9246 9.02494
rfingers 7.12502
rthumb 14.1296 -20.4746
lclavicle 1.17531e-014 -1.59028e-015
lhumerus -30.757 1.38043 85.002
lradius 46.1038
lwrist 9.39376
lhand -15.179 49.9986
lfingers 7.12502
lthumb 10.9921 79.6908
rfemur -28.2742 -5.88268 18.15
rtibia 46.6131
rfoot -9.26946 -9.86608
rtoes 4.04756
lfemur 2.58586 -2.59946 -31.1406
ltibia 22.2209
lfoot -15.4631 3.44087
ltoes -1.26472
4
root 2.23973 17.6209 -24.4413 -4.84745 -1.20892 3.56882
lowerback 18.1362 -0.753003 -4.906
upperback 0.217432 -1.89481 1.3088
thorax -9.76234 -0.63118 4.72342
lowerneck -13.7785 0.136017 -1.6903
upperneck 23.9066 1.64333 -4.10051
head 9.89671 0.129671 -0.944541
rclavicle -3.82164e-014 -1.11319e-014
rhumerus -31.0941 -7.34665 -80.4591
rradius 37.1008
rwrist -1.65553
rhand -11.9787 8.56249
rfingers 7.12502
rthumb 14.0775 -20.9407
lclavicle -3.82164e-014 -1.11319e-014
lhumerus -29.7327 1.15477 85.0078
lradius 46.1656
lwrist 9.18161
lhand -15.6593 49.1623
lfingers 7.12502
lthumb 10.5289 78.8786
rfemur -28.4694 -5.36676 18.6519
rtibia 44.276
rfoot -9.90596 -9.95659
rtoes 8.29115
lfemur 2.90948 -2.64095 -30.6577
ltibia 21.675
lfoot -15.4978 3.42553
ltoes -1.20635
5
root 2.24278 17.628 -24.3159 -4.78562 -1.10199 3.9177
lowerback 18.1883 -0.743688 -5.30477
upperback 0.251294 -1.96672 1.32371
thorax -9.73284 -0.647647 4.9877
lowerneck -14.0944 0.0905811 -2.00557
upperneck 24.009 1.65476 -4.02292
head 9.99293 0.109215 -0.864102
rclavicle 1.69464e-014 -1.03368e-014
rhumerus -30.8806 -7.3341 -80.3087
rradius 36.8184
rwrist -1.59633
rhand -11.935 9.14441
rfingers 7.12502
rthumb 14.1197 -20.3558
lclavicle 1.69464e-014 -1.03368e-014
lhumerus -29.5361 1.36964 85.0536
lradius 45.9114
lwrist 8.68771
lhand -16.4915 44.232
lfingers 7.12502
lthumb 9.72597 73.9874
rfemur -28.4835 -5.46494 18.3053
rtibia 41.9378
rfoot -9.63594 -9.91166
rtoes 7.10913
lfemur 3.65618 -2.36092 -31.0227
ltibia 20.9814
lfoot -15.4727 3.11411
ltoes -0.818765
6
root 2.24289 17.6372 -24.1923 -4.69461 -1.12065 4.00776
lowerback 18.5161 -0.70848 -5.51219
upperback -0.170478 -1.9857 1.39441
thorax -10.3781 -0.607625 5.21703
lowerneck -13.4312 0.294393 -1.93419
upperneck 23.9218 1.90475 -4.06564
head 9.83856 0.23637 -0.85848
rclavicle 9.93923e-015 7.95139e-016
rhumerus -31.6905 -7.16104 -80.0789
rradius 36.7787
rwrist -1.40538
rhand -11.6645 10.2139
rfingers 7.12502
rthumb 14.3803 -19.268
lclavicle 9.93923e-015 7.95139e-016
lhumerus -30.2793 0.887855 85.3378
lradius 46.1609
lwrist 9.52722
lhand -15.8475 51.4903
lfingers 7.12502
lthumb 10.3472 81.2157
rfemur -28.4255 -5.19941 18.2045
rtibia 39.4331
rfoot -9.52593 -9.94639
rtoes 6.5816
lfemur 4.34411 -2.03742 -31.0759
ltibia 20.3441
lfoot -15.3925 2.77936
ltoes -0.424168
7
root 2.23794 17.6491 -24.067 -4.55573 -1.05631 4.07184
lowerback 18.3391 -0.675648 -5.57528
upperback -0.128938 -1.95176 1.3276
thorax -10.2362 -0.597407 5.16129
lowerneck -13.4513 -0.0159446 -1.92025
upperneck 23.8796 1.46613 -4.07972
head 9.82122 0.0336081 -0.919545
rclavicle 4.91992e-015 4.77083e-015
rhumerus -31.6701 -7.42712 -80.1409
rradius 36.7291
rwrist -1.23919
rhand -12.4352 8.37706
rfingers 7.12502
rthumb 13.6376 -21.1562
lclavicle 4.91992e-015 4.77083e-015
lhumerus -30.1173 0.404392 85.4209
lradius 46.2854
lwrist 9.90946
lhand -16.2909 52.2148
lfingers 7.12502
lthumb 9.91949 81.9611
rfemur -28.334 -4.7057 18.0829
rtibia 36.9017
rfoot -9.70176 -10.1852
rtoes 6.23917
lfemur 5.19941 -1.82237 -31.0721
ltibia 19.3142
lfoot -15.0996 2.41177
ltoes 1.07966
